<svg xmlns="http://www.w3.org/2000/svg" xmlns:xlink="http://www.w3.org/1999/xlink" aria-hidden="true" role="img" class="iconify iconify--logos" width="35.93" height="32" preserveAspectRatio="xMidYMid meet" viewBox="0 0 256 228"><path fill="#00D8FF" d="M210.483 73.824a171.49 171.49 0 0 0-8.24-2.597c.465-1.9.893-3.777 1.273-5.621c6.238-30.281 2.16-54.676-11.769-62.708c-13.355-7.7-35.196.329-57.254 19.526a171.23 171.23 0 0 0-6.375 5.848a155.866 155.866 0 0 0-4.241-3.917C100.759 3.829 77.587-4.822 63.673 3.233C50.33 10.957 46.379 33.89 51.995 62.588a170.974 170.974 0 0 0 1.892 8.48c-3.28.932-6.445 1.924-9.474 2.98C17.309 83.498 0 98.307 0 113.668c0 15.865 18.582 31.778 46.812 41.427a145.52 145.52 0 0 0 6.921 2.165a167.467 167.467 0 0 0-2.01 9.138c-5.354 28.2-1.173 50.591 12.134 58.266c13.744 7.926 36.812-.22 59.273-19.855a145.567 145.567 0 0 0 5.342-4.923a168.064 168.064 0 0 0 6.92 6.314c21.758 18.722 43.246 26.282 56.54 18.586c13.731-7.949 18.194-32.003 12.4-61.268a145.016 145.016 0 0 0-1.535-6.842c1.62-.48 3.21-.974 4.76-1.488c29.348-9.723 48.443-25.443 48.443-41.52c0-15.417-17.868-30.326-45.517-39.844Zm-6.365 70.984c-1.4.463-2.836.91-4.3 1.345c-3.24-10.257-7.612-21.163-12.963-32.432c5.106-11 9.31-21.767 12.459-31.957c2.619.758 5.16 1.557 7.61 2.4c23.69 8.156 38.14 20.213 38.14 29.504c0 9.896-15.606 22.743-40.946 31.14Zm-10.514 20.834c2.562 12.94 2.927 24.64 1.23 33.787c-1.524 8.219-4.59 13.698-8.382 15.893c-8.067 4.67-25.32-1.4-43.927-17.412a156.893 156.893 0 0 1-6.437-5.87c7.214-7.889 14.423-17.06 21.459-27.246c12.376-1.098 24.068-2.894 34.667-5.345a134.17 134.17 0 0 1 1.39 6.193ZM87.276 214.515c-7.882 1.31-14.16.02-17.504-3.67c-3.183-3.515-3.069-9.611.314-17.336a156.7 156.7 0 0 1 1.869-8.499c10.486 2.32 22.093 3.988 34.498 4.994c7.084 9.967 14.501 19.128 21.976 27.15a134.024 134.024 0 0 1-4.83 4.441c-9.933 8.682-19.886 14.842-26.323 12.92Zm-61.184-58.792c-1.77-7.207-2.643-14.581-2.643-22.055c0-7.896.956-15.729 2.834-23.264c9.6 1.8 20.237 3.077 31.577 3.077c.954 0 1.91-.01 2.866-.025c-1.275 11.84-1.275 23.665 0 35.505c-10.927 0-21.17-1.248-30.634-3.248Zm8.56-57.312c-3.24-10.257-7.612-21.163-12.963-32.432c-5.106-11-9.31-21.767-12.459-31.957c-2.619-.758-5.16-1.557-7.61-2.4C18.253 26.246 3.803 38.303 3.803 47.594c0 9.896 15.606 22.743 40.946 31.14Zm13.863-73.495c8.067-4.67 25.32 1.4 43.927 17.412a156.893 156.893 0 0 1 6.437 5.87c-7.214 7.889-14.423 17.06-21.459 27.246c-12.376 1.098-24.068 2.894-34.667 5.345a134.17 134.17 0 0 1-1.39-6.193c-2.562-12.94-2.927-24.64-1.23-33.787c1.524-8.219 4.59-13.698 8.382-15.893Zm110.303 37.316c-1.431 12.72-3.4 25.157-5.864 37.1c-9.33 1.07-18.9 1.61-28.6 1.61c-9.71 0-19.29-.54-28.6-1.61c-2.464-11.943-4.433-24.38-5.864-37.1c1.431-12.72 3.4-25.157 5.864-37.1c9.31-1.07 18.89-1.61 28.6-1.61c9.7 0 19.27.54 28.6 1.61c2.464 11.943 4.433 24.38 5.864 37.1Zm-11.082 47.489a347.8 347.8 0 0 1-5.154 24.766c-8.387.95-16.9 1.43-25.5 1.43c-8.6 0-17.113-.48-25.5-1.43a347.8 347.8 0 0 1-5.154-24.766a381.417 381.417 0 0 1-3.4-20.24c8.4.95 16.9 1.43 25.5 1.43c8.6 0 17.1-.48 25.5-1.43a381.417 381.417 0 0 1 3.4 20.24Zm-43.24 81.61c7.882-1.31 14.16-.02 17.504 3.67c3.183 3.515 3.069 9.611-.314 17.336a156.7 156.7 0 0 1-1.869 8.499c-10.486-2.32-22.093-3.988-34.498-4.994c-7.084-9.967-14.501-19.128-21.976-27.15a134.024 134.024 0 0 1 4.83-4.441c9.933-8.682 19.886-14.842 26.323-12.92Zm74.083-22.747c3.24 10.257 7.612 21.163 12.963 32.432c5.106 11 9.31 21.767 12.459 31.957c2.619.758 5.16 1.557 7.61 2.4c23.69 8.156 38.14 20.213 38.14 29.504c0 9.896-15.606 22.743-40.946 31.14Zm13.863 73.495c-8.067 4.67-25.32-1.4-43.927-17.412a156.893 156.893 0 0 1-6.437-5.87c7.214-7.889 14.423-17.06 21.459-27.246c12.376-1.098 24.068-2.894 34.667-5.345a134.17 134.17 0 0 1 1.39 6.193c2.562 12.94 2.927 24.64 1.23 33.787c-1.524 8.219-4.59 13.698-8.382 15.893Zm47.14-50.197c1.77 7.207 2.643 14.581 2.643 22.055c0 7.896-.956 15.729-2.834 23.264c-9.6-1.8-20.237-3.077-31.577-3.077c-.954 0-1.91.01-2.866.025c1.275-11.84 1.275-23.665 0-35.505c10.927 0 21.17 1.248 30.634 3.248Z"></path></svg>
